HIERARCHY
ROOT Hips
{
 OFFSET 0.000000 0.000000 0.000000
 CHANNELS 6 Xposition Yposition Zposition Yrotation Xrotation Zrotation
 JOINT Chest
 {
  OFFSET 0.000000 14.634200 -0.016200
  CHANNELS 3 Yrotation Xrotation Zrotation
  JOINT Chest2
  {
   OFFSET 0.000000 8.932900 0.033000
   CHANNELS 3 Yrotation Xrotation Zrotation
   JOINT Chest3
   {
    OFFSET 0.000000 8.892300 0.000000
    CHANNELS 3 Yrotation Xrotation Zrotation
    JOINT Chest4
    {
     OFFSET 0.000000 8.883200 0.000000
     CHANNELS 3 Yrotation Xrotation Zrotation
     JOINT Neck
     {
      OFFSET 0.000000 13.173600 0.000000
      CHANNELS 3 Yrotation Xrotation Zrotation
      JOINT Head
      {
       OFFSET 0.000000 8.324600 0.069800
       CHANNELS 3 Yrotation Xrotation Zrotation
       End Site
       {
        OFFSET 0.000000 15.692400 0.036900
       }
      }
     }
     JOINT RightCollar
     {
      OFFSET -2.619200 8.772200 0.000000
      CHANNELS 3 Yrotation Xrotation Zrotation
      JOINT RightShoulder
      {
       OFFSET -12.922000 0.000000 0.000000
       CHANNELS 3 Yrotation Xrotation Zrotation
       JOINT RightElbow
       {
        OFFSET 0.000000 -27.880900 0.000000
        CHANNELS 3 Yrotation Xrotation Zrotation
        JOINT RightWrist
        {
         OFFSET 0.000000 -22.758700 0.008200
         CHANNELS 3 Yrotation Xrotation Zrotation
         End Site
         {
          OFFSET 0.000000 -16.965000 0.000000
         }
        }
       }
      }
     }
     JOINT LeftCollar
     {
      OFFSET 2.619200 8.772200 0.000000
      CHANNELS 3 Yrotation Xrotation Zrotation
      JOINT LeftShoulder
      {
       OFFSET 12.922000 0.000000 0.000000
       CHANNELS 3 Yrotation Xrotation Zrotation
       JOINT LeftElbow
       {
        OFFSET 0.000000 -27.880900 0.000000
        CHANNELS 3 Yrotation Xrotation Zrotation
        JOINT LeftWrist
        {
         OFFSET 0.000000 -22.758700 0.008200
         CHANNELS 3 Yrotation Xrotation Zrotation
         End Site
         {
          OFFSET 0.000000 -16.965000 0.000000
         }
        }
       }
      }
     }
    }
   }
  }
 }
 JOINT RightHip
 {
  OFFSET -12.026800 0.080100 0.008100
  CHANNELS 3 Yrotation Xrotation Zrotation
  JOINT RightKnee
  {
   OFFSET 0.000000 -42.600800 -0.000200
   CHANNELS 3 Yrotation Xrotation Zrotation
   JOINT RightAnkle
   {
    OFFSET 0.000000 -38.219300 0.054300
    CHANNELS 3 Yrotation Xrotation Zrotation
    JOINT RightToe
    {
     OFFSET 0.000000 -9.685800 15.804700
     CHANNELS 3 Yrotation Xrotation Zrotation
     End Site
     {
      OFFSET 0.000000 -1.422300 5.761700
     }
    }
   }
  }
 }
 JOINT LeftHip
 {
  OFFSET 12.026800 0.080100 0.008100
  CHANNELS 3 Yrotation Xrotation Zrotation
  JOINT LeftKnee
  {
   OFFSET 0.000000 -42.600800 -0.000200
   CHANNELS 3 Yrotation Xrotation Zrotation
   JOINT LeftAnkle
   {
    OFFSET 0.000000 -38.219300 0.054300
    CHANNELS 3 Yrotation Xrotation Zrotation
    JOINT LeftToe
    {
     OFFSET 0.000000 -9.685800 15.804700
     CHANNELS 3 Yrotation Xrotation Zrotation
     End Site
     {
      OFFSET 0.000000 -1.422300 5.761700
     }
    }
   }
  }
 }
}
MOTION
Frames: 11
Frame Time: 0.008333
-14.430123 129.516158 27.880465 169.064017 -23.044186 -0.747139 1.404975 18.423016 0.478408 0.122043 2.106096 0.022852 0.279312 3.459767 0.067279 1.144836 16.063849 0.381605 1.842673 15.615094 2.727755 1.315984 -9.308905 2.446496 13.843809 -4.926299 -8.476233 32.763061 -35.838851 -23.379420 13.714184 0.092357 5.716219 14.925798 -27.383819 -73.600107 -8.494484 -2.058361 1.596130 -3.479521 -37.255941 -0.310410 -4.414190 -24.757838 6.322190 -10.468585 -18.962128 39.372519 3.584178 -51.287556 8.808233 -27.929580 77.767362 -37.143306 -6.954392 -16.816153 9.663097 -0.019092 -0.023902 -0.011698 19.637255 -47.223265 -19.973160 76.383231 76.224950 87.246600 7.031506 -3.992191 -4.691142 0.008942 -0.009929 0.005479
-14.428676 129.515570 27.879988 169.080399 -23.040815 -0.757509 1.366155 18.429151 0.467568 0.131410 2.101423 0.023625 0.259674 3.466915 0.063663 1.111519 16.069067 0.355465 1.858227 15.678173 2.864362 1.302491 -9.238588 2.588672 13.869477 -4.938607 -8.489620 32.662265 -35.772950 -23.520170 13.436241 -0.008358 5.755422 14.809879 -27.641316 -73.499952 -8.508227 -2.057023 1.608380 -3.492270 -37.227425 -0.245163 -4.307496 -24.811566 6.292478 -10.413313 -19.074003 39.398059 3.574357 -51.295700 8.838974 -27.958662 77.776389 -37.192864 -6.924024 -16.816225 9.655353 -0.017593 -0.021228 -0.010780 19.619604 -47.224968 -19.969615 76.395970 76.229517 87.256318 7.033115 -4.014532 -4.692034 0.009353 -0.009591 0.005731
-14.427851 129.515456 27.878413 169.081924 -23.041971 -0.760601 1.316758 18.441414 0.427144 0.163402 2.094575 0.042940 0.238059 3.473232 0.052627 1.079979 16.076780 0.332348 1.883288 15.729632 3.003433 1.298461 -9.180169 2.731569 13.893852 -4.954335 -8.496547 32.558329 -35.735117 -23.640487 13.086174 -0.081800 5.768784 14.703771 -27.888452 -73.411389 -8.521124 -2.053767 1.629059 -3.510972 -37.193613 -0.168314 -4.132130 -24.899172 6.220981 -10.408748 -19.174503 39.435335 3.541681 -51.287280 8.905111 -27.919388 77.778703 -37.200410 -6.948398 -16.818714 9.671035 -0.022061 -0.015011 -0.013518 19.616606 -47.220474 -19.965720 76.416989 76.231702 87.276340 7.034949 -4.030218 -4.695405 0.011767 -0.008835 0.007210
-14.426212 129.515512 27.876608 169.088488 -23.044308 -0.769998 1.306168 18.445193 0.427923 0.140262 2.100763 0.027836 0.232795 3.476124 0.048642 1.038605 16.085259 0.312384 1.918000 15.771565 3.140113 1.305230 -9.131578 2.869933 13.779187 -4.964610 -8.558526 32.539174 -35.785921 -23.678241 12.702456 -0.150913 5.761580 14.648128 -28.077273 -73.385407 -8.521680 -2.049117 1.649758 -3.503498 -37.171425 -0.109589 -4.015094 -24.966765 6.174993 -10.368825 -19.287167 39.464918 3.453708 -51.272591 9.054390 -27.832914 77.786318 -37.218791 -7.037980 -16.808896 9.704130 -0.013253 -0.012998 -0.008121 19.606629 -47.213170 -19.950930 76.435738 76.234791 87.290148 7.027431 -4.061528 -4.696221 0.009892 -0.008714 0.006062
-14.425039 129.514937 27.876286 169.090289 -23.039317 -0.777633 1.268916 18.452809 0.407178 0.136533 2.101790 0.025346 0.226423 3.477914 0.044710 0.998445 16.086468 0.292942 1.959282 15.807416 3.272119 1.319905 -9.089303 3.002114 13.711844 -4.979485 -8.598633 32.441582 -35.839939 -23.693660 12.344257 -0.220261 5.739813 14.649489 -28.207240 -73.447117 -8.471597 -2.052495 1.664756 -3.487524 -37.167353 -0.090301 -3.928502 -25.016903 6.124267 -10.345845 -19.377984 39.490239 3.436426 -51.279296 9.109289 -27.821755 77.794425 -37.237917 -7.009483 -16.804964 9.692468 -0.004023 -0.009705 -0.002466 19.601372 -47.216176 -19.936806 76.463211 76.244204 87.306303 7.024643 -4.082389 -4.686770 0.006553 -0.006275 0.004016
-14.424756 129.514438 27.875558 169.093847 -23.034338 -0.782456 1.226590 18.458992 0.380225 0.083369 2.111860 0.010935 0.268442 3.470403 0.051958 0.955384 16.084287 0.279350 2.002323 15.841066 3.398360 1.337666 -9.049360 3.127961 13.676566 -4.990659 -8.628620 32.260383 -35.906236 -23.677439 12.059969 -0.297704 5.707675 14.689600 -28.301742 -73.569641 -8.413064 -2.052108 1.671860 -3.502527 -37.117648 -0.038455 -3.845398 -25.101891 6.077398 -10.300186 -19.455730 39.496709 3.439517 -51.287809 9.138821 -27.826502 77.802353 -37.254124 -6.991188 -16.803547 9.683348 0.001136 -0.008400 0.000696 19.584037 -47.214880 -19.915760 76.458812 76.249549 87.281312 7.018176 -4.100967 -4.675369 0.003152 -0.000551 0.001932
-14.425038 129.513706 27.875410 169.095523 -23.025785 -0.784516 1.141780 18.466984 0.338912 0.109670 2.104535 0.017695 0.201801 3.478284 0.034853 0.971840 16.075817 0.270926 2.044168 15.874606 3.517567 1.355865 -9.009567 3.246661 13.650404 -5.001158 -8.660646 32.008185 -35.984575 -23.623794 11.885927 -0.402014 5.669443 14.754895 -28.366108 -73.702647 -8.379543 -2.039416 1.675049 -3.448524 -37.031539 0.015763 -3.801346 -25.218472 6.024807 -10.245869 -19.531886 39.480654 3.445488 -51.298923 9.155954 -27.824232 77.807559 -37.255669 -6.971367 -16.803093 9.671996 0.002423 -0.006602 0.001485 19.579737 -47.221404 -19.911898 76.489466 76.256502 87.298501 7.025970 -4.115000 -4.667653 -0.000480 0.000790 -0.000294
-14.425019 129.512706 27.876251 169.097163 -23.013045 -0.787861 1.087104 18.463491 0.318906 0.100522 2.103757 0.017697 0.191833 3.477565 0.032127 0.923309 16.075925 0.252853 2.082373 15.909831 3.628882 1.372016 -8.968135 3.357901 13.639080 -5.018090 -8.697641 31.687050 -36.061216 -23.542065 11.840609 -0.549585 5.627680 14.835842 -28.387246 -73.808222 -8.364371 -2.035359 1.676446 -3.334297 -36.965420 0.047550 -3.756458 -25.324299 5.929903 -10.245445 -19.579827 39.484063 3.432170 -51.311987 9.179009 -27.806955 77.809925 -37.245397 -6.943068 -16.801065 9.655272 0.002132 -0.003882 0.001306 19.576728 -47.232387 -19.909543 76.484590 76.257805 87.290563 7.027288 -4.115835 -4.668730 0.000393 -0.000457 0.000241
-14.424211 129.512501 27.875675 169.093324 -23.007087 -0.790369 1.077446 18.459504 0.317620 0.048077 2.108410 0.016417 0.220815 3.474593 0.029801 0.835495 16.078642 0.240284 2.112239 15.949726 3.732319 1.380980 -8.922016 3.462802 13.638512 -5.043488 -8.743564 31.323741 -36.125430 -23.452988 11.912986 -0.745529 5.583565 14.928186 -28.358387 -73.877697 -8.293619 -2.045060 1.657624 -3.280716 -36.932444 0.068061 -3.750675 -25.394590 5.830360 -10.267270 -19.597597 39.527082 3.420480 -51.318033 9.197783 -27.784777 77.810842 -37.224352 -6.912774 -16.796073 9.636188 0.000904 -0.001694 0.000554 19.572157 -47.231422 -19.891821 76.482772 76.270673 87.286592 7.032808 -4.129421 -4.681185 0.007925 0.003846 0.004857
-14.424115 129.512182 27.875582 169.086847 -22.999004 -0.788888 1.020211 18.460506 0.297214 0.039307 2.102637 0.018972 0.251084 3.475680 0.024870 0.750350 16.075669 0.234828 2.129400 15.998165 3.829991 1.377813 -8.866992 3.564538 13.642450 -5.072902 -8.801056 30.950710 -36.170408 -23.379790 12.069557 -0.987038 5.536485 15.031018 -28.300832 -73.930603 -8.229564 -2.053524 1.632735 -3.222060 -36.896581 0.090051 -3.785235 -25.444285 5.791237 -10.282925 -19.625047 39.530704 3.408595 -51.325787 9.213732 -27.769355 77.808212 -37.211436 -6.885373 -16.787809 9.618132 0.002408 -0.000052 0.001475 19.577539 -47.234556 -19.888435 76.489355 76.274042 87.284779 7.031868 -4.137504 -4.674751 0.003109 0.006135 0.001906
-14.423280 129.512049 27.875440 169.073496 -22.992344 -0.787144 0.899895 18.456321 0.266684 0.098009 2.099340 0.015706 0.181838 3.474773 0.026412 0.821079 16.076627 0.216645 2.083310 16.052737 3.945975 1.359338 -8.799704 3.668135 13.591798 -5.111393 -8.850730 30.594824 -36.191966 -23.342666 12.253823 -1.272635 5.484178 15.139896 -28.230553 -73.990292 -8.230555 -2.061696 1.630873 -3.159316 -36.831393 0.140350 -3.827774 -25.517018 5.736309 -10.314303 -19.633084 39.531555 3.275135 -51.321198 9.323223 -27.675153 77.804611 -37.194323 -6.855585 -16.776006 9.602512 0.003025 -0.000872 0.001854 19.583802 -47.239201 -19.880191 76.484865 76.278044 87.276648 7.028140 -4.138360 -4.673061 -0.000233 0.005017 -0.000143
